<mxfile host="app.diagrams.net" modified="2023-03-30T16:25:39.634Z" agent="Mozilla/5.0 (Macintosh; Intel Mac OS X 10_15_7) AppleWebKit/537.36 (KHTML, like Gecko) Chrome/111.0.0.0 Safari/537.36" version="21.1.1" etag="sJThox-6qVdaIMl08kWk" type="github">
  <diagram name="Page-1" id="HWPAQTV0XwuMj5h99DF8">
    <mxGraphModel>
      <root>
        <mxCell id="0" />
        <mxCell id="1" parent="0" />
      </root>
    </mxGraphModel>
  </diagram>
</mxfile>
